<svg xmlns="http://www.w3.org/2000/svg" version="1.0" width="100%" height="100%" viewBox="0
 0 4000 4000" xmlns:xlink="http://www.w3.org/1999/xlink">
    <circle id="circle" cx="2000" cy="2000" r="2000" fill="#2DC100" />
    <metadata>
        Created by potrace 1.13, written by Peter Selinger 2001-2015
    </metadata>
    <g transform="matrix(0.15 0 0 -0.15 500 3350)" fill="#000000" stroke="none">
        <path d="M6028,18225c-669,-95,-1182,-528,-1473,-1244c-275,-676,-357,-1592,-244,-2721c41,-410,121,-924,215,-1367c24,-116,44,-214,44,-217c0,-3,-9,-6,-19,-6c-27,0,-467,-99,-686,-154c-615,-155,-1213,-355,-1689,-565c-140,-63,-459,-219,-545,-268c-420,-239,-708,-450,-961,-704c-367,-370,-578,-771,-631,-1203c-15,-123,-7,-390,16,-506c139,-717,693,-1374,1665,-1977c172,-107,401,-235,525,-295c88,-42,93,-43,190,-43c88,0,107,3,157,27c74,34,152,112,186,186c24,50,27,69,27,162c0,96,-2,110,-29,163c-39,77,-112,143,-221,201c-636,341,-1075,665,-1380,1018c-302,351,-427,694,-370,1019c141,809,1350,1569,3260,2048c199,50,573,134,651,147l40,6l38,-139c178,-654,490,-1566,790,-2312l45,-112l-91,-172c-132,-247,-469,-935,-583,-1187c-306,-676,-529,-1241,-736,-1860c-669,-2007,-778,-3620,-310,-4615c345,-732,1021,-1118,1854,-1057c710,51,1512,379,2407,983c239,161,269,186,312,250c101,152,85,339,-41,472c-71,75,-144,109,-247,115c-111,6,-168,-13,-284,-92c-718,-493,-1297,-782,-1814,-906c-336,-81,-650,-84,-886,-8c-83,26,-220,98,-288,150c-69,54,-172,165,-223,242c-57,86,-141,264,-178,376c-103,316,-137,606,-128,1095c5,317,16,453,63,780c141,997,517,2218,1072,3486c172,392,480,1041,492,1034c3,-2,28,-52,55,-112c193,-426,552,-1140,818,-1628c1357,-2486,2986,-4543,4507,-5689c1033,-779,1949,-1098,2712,-945c328,66,609,214,857,454c654,631,913,1828,750,3465c-169,1703,-771,3750,-1714,5825c-270,595,-298,642,-412,702c-177,95,-387,44,-496,-120c-61,-91,-82,-207,-56,-302c6,-22,61,-146,121,-275c1083,-2312,1722,-4513,1829,-6305c15,-246,6,-819,-15,-1018c-99,-909,-402,-1474,-882,-1641c-128,-45,-233,-59,-409,-53c-198,5,-322,29,-540,102c-1882,629,-4455,3700,-6231,7437c-181,381,-434,948,-434,973c0,7,67,130,150,273c522,911,1085,1770,1725,2634l50,67l480,1c1963,1,3965,-235,5735,-676c2670,-665,4484,-1770,4612,-2809c83,-682,-629,-1368,-1977,-1903c-193,-77,-283,-208,-273,-396c8,-144,84,-257,216,-319c60,-29,77,-32,157,-32c86,0,97,3,225,54c491,197,941,433,1285,675c254,179,525,425,679,616c667,833,600,1795,-185,2645c-401,434,-952,823,-1699,1196c-246,123,-266,132,-500,234c-1237,539,-2857,968,-4585,1214c-1013,145,-2086,235,-3050,256c-137,3,-309,8,-382,11l-132,6l72,87c729,875,1460,1630,2174,2244c1048,899,2037,1467,2812,1613c169,32,408,43,544,24c570,-77,896,-503,1003,-1310c22,-166,30,-637,15,-852c-17,-241,-47,-480,-97,-783c-33,-194,-44,-282,-39,-314c25,-169,156,-304,318,-329c166,-26,335,63,403,213c51,110,143,703,173,1115c60,806,-33,1476,-273,1975c-75,155,-125,238,-218,362c-158,211,-368,386,-603,502c-199,99,-348,145,-572,177c-153,22,-434,22,-606,0c-1091,-138,-2407,-912,-3867,-2272c-202,-188,-702,-690,-901,-904c-428,-461,-906,-1024,-1296,-1526l-32,-41l-205,-6c-718,-24,-1765,-120,-2400,-222c-49,-8,-91,-14,-92,-12c-4,5,-96,454,-124,607c-134,747,-192,1430,-170,1997c24,615,117,1054,297,1413c143,287,323,472,553,569c563,240,1432,-69,2433,-864c86,-69,175,-136,196,-149c236,-149,555,22,569,305c10,195,-41,258,-473,583c-690,519,-1330,830,-1930,937c-155,28,-500,35,-647,14ZM7408,12228c-247,-329,-824,-1209,-1169,-1785c-94,-158,-129,-208,-134,-195c-99,246,-303,845,-461,1352c-32,104,-134,464,-131,466c4,4,356,53,567,79c334,40,618,67,1090,104c58,5,140,9,184,10l78,1l-24,-32Z" style="" fill="white" id="e3_path" />
        <path d="M9882,10135c-237,-43,-445,-150,-609,-314c-454,-454,-455,-1171,-4,-1621c170,-170,370,-275,611,-321c92,-18,328,-15,418,5c359,79,641,295,801,613c176,349,158,774,-48,1109c-174,282,-458,473,-785,529c-106,18,-284,18,-384,0Z" fill="white" />
    </g>
</svg>
